<svg data-v-3dcc7ac5="" xmlns="http://www.w3.org/2000/svg" viewBox="0 0 392.72 110.6" svg-inline="" role="presentation" focusable="false" tabindex="-1" class="header-logo"><path data-v-3dcc7ac5="" fill="#3d3d41" d="M113.37 56.09c0-12.17 9.3-20.88 21.82-20.88 6.95 0 12.75 2.54 16.54 7.15l-6 5.54a12.91 12.91 0 00-10.06-4.76c-7.53 0-12.87 5.31-12.87 12.92s5.32 12.92 12.87 12.92a12.76 12.76 0 0010.1-4.79l6 5.54c-3.79 4.67-9.59 7.21-16.6 7.21-12.5 0-21.8-8.71-21.8-20.85zM184.46 58.54v17.71h-8.38v-3.87c-1.66 2.83-4.88 4.33-9.42 4.33-7.23 0-11.54-4-11.54-9.4s3.85-9.29 13.27-9.29h7.12c0-3.86-2.3-6.11-7.12-6.11a14.84 14.84 0 00-8.9 2.88l-3.22-6.28c3.4-2.42 8.4-3.75 13.32-3.75 9.42 0 14.87 4.38 14.87 13.78zm-8.95 7.9v-3.17h-6.15c-4.19 0-5.51 1.56-5.51 3.64 0 2.24 1.89 3.74 5 3.74 3.04 0 5.62-1.38 6.66-4.21zM211.75 44.76v8.33c-.75 0-1.32-.11-2-.11-4.94 0-8.21 2.71-8.21 8.65v14.62h-9v-31h8.55v4.09c2.22-3.03 5.89-4.58 10.66-4.58zM215.95 56.09c0-11.94 9.07-20.65 21.3-20.65 6.2 0 11.6 2.14 15.28 6.29l-3.74 3.63a14.88 14.88 0 00-11.31-4.78c-9.07-.03-15.81 6.51-15.81 15.51s6.72 15.52 15.79 15.52a14.91 14.91 0 0011.31-4.85l3.74 3.64c-3.68 4.15-9.08 6.34-15.34 6.34-12.15-.03-21.22-8.74-21.22-20.65zM258.79 33.45h5.51v42.8h-5.51zM297.79 57.79v18.46h-5.23v-4c-1.84 2.77-5.22 4.38-10 4.38-6.89 0-11.26-3.69-11.26-9 0-4.91 3.16-8.94 12.24-8.94h8.72v-1.1c0-4.67-2.69-7.38-8.15-7.38a15.36 15.36 0 00-9.65 3.29l-2.29-4.16a20.22 20.22 0 0112.57-3.92c8.34-.03 13.05 4.01 13.05 12.37zm-5.52 9.12v-4.27h-8.49c-5.46 0-7 2.13-7 4.73 0 3 2.53 5 6.72 5s7.4-1.95 8.77-5.46zM323.23 45.39v5.37a9.29 9.29 0 00-1.26-.06c-5.92 0-9.59 3.63-9.59 10.32v15.23h-5.52V45.68h5.29v5.13c1.95-3.57 5.74-5.42 11.08-5.42zM327.89 36.22a3.63 3.63 0 013.78-3.63 3.58 3.58 0 013.68 3.5 3.73 3.73 0 01-7.46.11zm1 9.46h5.51v30.57h-5.51zM360.85 74.46a10.38 10.38 0 01-6.66 2.13c-6.15 0-9.65-3.4-9.65-9.57V50.24h-5.17v-4.56h5.17v-6.69h5.52v6.69h8.72v4.56h-8.72v16.55c0 3.29 1.72 5.13 4.76 5.13a7 7 0 004.31-1.44z" class="a"></path><path data-v-3dcc7ac5="" fill="#3d3d41" d="M392.73 45.68l-14.76 33.63c-2.7 6.45-6.2 8.47-10.86 8.47a11.43 11.43 0 01-7.81-2.82l2.37-4.15a7.76 7.76 0 005.44 2.28c2.65 0 4.31-1.21 5.8-4.72l1-2.14-13.46-30.55h5.75l10.62 24.41 10.51-24.45z" class="a"></path><g data-v-3dcc7ac5=""><path data-v-3dcc7ac5="" fill="#6100d5" d="M55.3 110.6A55.3 55.3 0 010 55.3 55.56 55.56 0 0127.49 7.52a6.035 6.035 0 116.09 10.42A43.22 43.22 0 0055.3 98.53a42.92 42.92 0 0030-12.13l-11.13-8.7a29.31 29.31 0 114.21-40.4 6.031 6.031 0 11-9.51 7.42 17.23 17.23 0 100 21.17 6 6 0 014-2.27 6.09 6.09 0 014.45 1.23l20.48 16a6 6 0 011 8.48 55 55 0 01-43.5 21.27zM94.17 31.09a6 6 0 01-4.76-2.32A43 43 0 0055.3 12.09a6.035 6.035 0 010-12.07 55 55 0 0143.62 21.3 6 6 0 01-4.75 9.77z" class="b"></path></g></svg>